<?xml version="1.0" encoding="UTF-8"?>
<svg id="Layer_1" data-name="Layer 1" xmlns="http://www.w3.org/2000/svg" viewBox="0 0 640.51 146.75">
  <defs>
    <style>
      .cls-1 {
        fill: #42a0f4;
        stroke-width: 0px;
      }
    </style>
  </defs>
  <g>
    <path class="cls-1" d="M259.43,40.13l-26.13,50.34v28.64h-12.95v-28.64l-26.25-50.34h14.43l18.29,38.75,18.3-38.75h14.32Z"/>
    <path class="cls-1" d="M321.1,92.63h-47.84c.38,5,2.23,9.02,5.57,12.04,3.33,3.03,7.42,4.55,12.27,4.55,6.97,0,11.89-2.91,14.77-8.75h13.98c-1.89,5.76-5.32,10.47-10.28,14.15-4.96,3.68-11.12,5.51-18.47,5.51-5.98,0-11.35-1.34-16.08-4.03-4.74-2.69-8.45-6.48-11.14-11.36-2.69-4.89-4.03-10.55-4.03-16.99s1.31-12.1,3.92-16.99c2.61-4.89,6.29-8.65,11.02-11.31,4.73-2.65,10.17-3.98,16.31-3.98s11.17,1.29,15.79,3.86c4.62,2.57,8.22,6.19,10.8,10.85,2.57,4.66,3.86,10.02,3.86,16.08,0,2.35-.15,4.47-.45,6.36ZM308.04,82.17c-.08-4.77-1.78-8.6-5.11-11.48-3.33-2.88-7.46-4.32-12.39-4.32-4.47,0-8.3,1.42-11.48,4.26-3.18,2.84-5.08,6.69-5.68,11.54h34.66Z"/>
    <path class="cls-1" d="M349.4,67.06v34.66c0,2.35.55,4.04,1.65,5.06,1.1,1.02,2.97,1.53,5.62,1.53h7.95v10.8h-10.23c-5.83,0-10.3-1.36-13.41-4.09-3.11-2.73-4.66-7.16-4.66-13.3v-34.66h-7.39v-10.57h7.39v-15.57h13.07v15.57h15.23v10.57h-15.23Z"/>
    <path class="cls-1" d="M433.26,56.49v62.61h-12.96v-7.39c-2.04,2.57-4.72,4.6-8.01,6.08-3.29,1.48-6.8,2.21-10.51,2.21-4.92,0-9.34-1.02-13.24-3.07-3.9-2.05-6.97-5.07-9.2-9.09-2.23-4.01-3.35-8.86-3.35-14.55v-36.82h12.84v34.89c0,5.61,1.4,9.91,4.2,12.9,2.8,2.99,6.63,4.49,11.48,4.49s8.69-1.5,11.53-4.49c2.84-2.99,4.26-7.29,4.26-12.9v-34.89h12.96Z"/>
    <path class="cls-1" d="M533.48,40.13v78.97h-12.95v-54.09l-24.09,54.09h-8.98l-24.2-54.09v54.09h-12.95V40.13h13.98l27.73,61.93,27.61-61.93h13.86Z"/>
    <path class="cls-1" d="M563.47,56.49v62.61h-12.95v-62.61h12.95Z"/>
    <path class="cls-1" d="M580.12,70.81c2.61-4.85,6.17-8.62,10.68-11.31,4.51-2.69,9.49-4.03,14.94-4.03,4.92,0,9.22.96,12.9,2.9,3.67,1.93,6.61,4.34,8.81,7.22v-9.09h13.07v62.61h-13.07v-9.32c-2.2,2.95-5.19,5.42-8.98,7.39-3.79,1.97-8.11,2.95-12.95,2.95-5.38,0-10.3-1.38-14.77-4.15-4.47-2.76-8.01-6.63-10.62-11.59-2.61-4.96-3.92-10.59-3.92-16.87s1.31-11.86,3.92-16.7ZM624.78,76.49c-1.78-3.18-4.11-5.61-6.99-7.27-2.88-1.66-5.98-2.5-9.32-2.5s-6.44.82-9.32,2.44c-2.88,1.63-5.21,4.02-6.99,7.16-1.78,3.14-2.67,6.87-2.67,11.19s.89,8.11,2.67,11.36c1.78,3.26,4.13,5.74,7.04,7.44,2.92,1.7,6,2.56,9.26,2.56s6.44-.83,9.32-2.5c2.88-1.66,5.21-4.11,6.99-7.33,1.78-3.22,2.67-6.99,2.67-11.31s-.89-8.07-2.67-11.25Z"/>
    <rect class="cls-1" x="547.23" y="35.74" width="19.8" height="10.8"/>
  </g>
  <g>
    <circle class="cls-1" cx="65.22" cy="26.5" r="26.5"/>
    <circle class="cls-1" cx="57.07" cy="97.83" r="20.38"/>
    <circle class="cls-1" cx="118.22" cy="71.34" r="24.46"/>
    <circle class="cls-1" cx="16.31" cy="130.45" r="16.31"/>
  </g>
</svg>